# xmcd
#
# Track frame offsets:
# 150
# 18374
# 36178
# 53909
# 70364
# 87272
# 103807
# 124659
# 141553
# 157729
# 177281
# 190045
# 206825
# 223633
# 238282
# 255402
# 270376
# 287846
# 304253
# 323253
#
# Disc length: 4557 seconds
#
#
# Revision: 2
# Processed by: cddbd v1.5.2PL0 Copyright (c) Steve Scherf et al.
# Submitted via: FreeRIP 2.96 
#
DISCID=2311cb14
DTITLE=Jones TM - HP200648 12/01/06
DYEAR=2006
DGENRE=Top 40
TTITLE0=Toby Lightman - My Sweet Song
TTITLE1=Pussycat Dolls - How Many Times, How Many Lies
TTITLE2=Letoya - Obvious
TTITLE3=Tyrese - One [Radio Edit]
TTITLE4=Amerie - Take Control [Main]
TTITLE5=Lil Rob - Stuck With You [Amended]
TTITLE6=Jibbs Feat. Chamillionaire - King Kong [Main]
TTITLE7=Jay-Z Feat. Chrisette Michele - Lost One [Clean]
TTITLE8=Trick Daddy Feat. Chamillionaire and Goldrush - Bet That [Clean]
TTITLE9=Hank Williams, Jr. - A Country Boy Can Survive [25th Anniversary Remix]
TTITLE10=Blaine Larsen - Spoken Like A Man
TTITLE11=Carolina Rain - Isn't She
TTITLE12=Eighteen Visions - Broken Hearted [Radio Edit]
TTITLE13=Pepper - No Control [Album Version]
TTITLE14=Killers - Bones [Album Version]
TTITLE15=Brandy Moss-Scott - Lollipop [Josh harris Miami Freedom Radio Edit]
TTITLE16=Jupiter Rising - Go! [Dave Aude Radio Mix]
TTITLE17=Pet Shop Boys - Minimal
TTITLE18=Bebo Norman - I Will Lift My Eyes
TTITLE19=Leeland - Yes You Have
EXTD=
EXTT0=
EXTT1=
EXTT2=
EXTT3=
EXTT4=
EXTT5=
EXTT6=
EXTT7=
EXTT8=
EXTT9=
EXTT10=
EXTT11=
EXTT12=
EXTT13=
EXTT14=
EXTT15=
EXTT16=
EXTT17=
EXTT18=
EXTT19=
PLAYORDER=
